<?xml version="1.0" encoding="iso-8859-1"?>
<!-- Generator: Adobe Illustrator 19.0.0, SVG Export Plug-In . SVG Version: 6.00 Build 0)  -->
<svg version="1.1" id="Layer_1" xmlns="http://www.w3.org/2000/svg" xmlns:xlink="http://www.w3.org/1999/xlink" x="0px" y="0px"
	 viewBox="0 0 512 512" style="enable-background:new 0 0 512 512;" xml:space="preserve">
<path style="fill:#0055B8;" d="M503.756,118.065c0-9.069-7.42-16.489-16.489-16.489H24.733c-9.069,0-16.489,7.42-16.489,16.489
	v275.87c0,9.069,7.42,16.489,16.489,16.489h462.533c9.069,0,16.489-7.42,16.489-16.489V118.065z"/>
<path style="opacity:0.1;enable-background:new    ;" d="M255.996,230.032L9.306,399.687c2.148,5.713,7.372,9.949,13.636,10.634
	l233.053-160.278l233.055,160.278c6.267-0.683,11.492-4.918,13.641-10.631L255.996,230.032z"/>
<path style="opacity:0.2;enable-background:new    ;" d="M487.267,101.576H24.733c-9.069,0-16.489,7.42-16.489,16.489v2.199
	l247.755,172.539l247.755-172.539v-2.199C503.756,108.996,496.336,101.576,487.267,101.576z"/>
<path style="fill:#0082CA;" d="M487.267,101.576H24.733c-4.091,0-7.839,1.52-10.73,4.01l241.996,168.529l241.996-168.529
	C495.105,103.096,491.358,101.576,487.267,101.576z"/>
<path style="fill:#1E252B;" d="M487.267,93.332H24.733C11.095,93.332,0,104.427,0,118.065v275.87
	c0,13.639,11.095,24.733,24.733,24.733h462.533c13.639,0,24.733-11.095,24.733-24.733v-275.87
	C512,104.427,500.904,93.332,487.267,93.332z M477.49,109.821l-221.49,154.247L34.51,109.821H477.49z M495.511,393.935
	c0,4.547-3.698,8.244-8.244,8.244H24.733c-4.547,0-8.244-3.698-8.244-8.244v-275.87c0-0.229,0.016-0.453,0.034-0.677L251.288,280.88
	c1.416,0.985,3.064,1.479,4.711,1.479c1.648,0,3.296-0.494,4.711-1.479l234.765-163.492c0.019,0.224,0.034,0.448,0.034,0.677v275.87
	H495.511z"/>
<g>
</g>
<g>
</g>
<g>
</g>
<g>
</g>
<g>
</g>
<g>
</g>
<g>
</g>
<g>
</g>
<g>
</g>
<g>
</g>
<g>
</g>
<g>
</g>
<g>
</g>
<g>
</g>
<g>
</g>
</svg>
